/* XPM */
static char *_4f80e2f8668477dbe812513761134daS2DH8dM8bmLiuYRF[] = {
/* columns rows colors chars-per-pixel */
"64 64 3 1 ",
"  c #7C802D",
". c #979C3B",
"X c #ADAD61",
/* pixels */
"XXXXXXXXXXXXXXXXXXXXXXXXXXXXXXXXXXXXXXXXXXXXXXXXXXXXXXXXXXXXXXXX",
"XXXXXXXXXXXXXXXXXXXXXXXXXXXXXXXXXXXXXXXXXXXXXXXXXXXXXXXXXXXXXXXX",
" ... ...  .....  ... ...  .....  ... ...  .....  ... ...  ..... ",
" ..   .. ....... ..   .. ....... ..   .. ....... ..   .. .......",
" .  .  . ....... .  .  . ....... .  .  . ....... .  .  . .......",
"   . .   .......   . .   .......   . .   .......   . .   .......",
"  . . .  .......  . . .  .......  . . .  .......  . . .  .......",
" . ... . ... ... . ... . ... ... . ... . ... ... . ... . ... ...",
"  .....  ..   ..  .....  ..   ..  .....  ..   ..  .....  ..   ..",
" ....... .  .  . ....... .  .  . ....... .  .  . ....... .  .  .",
" .......   . .   .......   . .   .......   . .   .......   . .  ",
" .......  . . .  .......  . . .  .......  . . .  .......  . . . ",
" ....... . ... . ....... . ... . ....... . ... . ....... . ... .",
" ... ...  .....  ... ...  .....  ... ...  .....  ... ...  ..... ",
" ..   .. ....... ..   .. ....... ..   .. ....... ..   .. .......",
" .  .  . ....... .  .  . ....... .  .  . ....... .  .  . .......",
"   . .   .......   . .   .......   . .   .......   . .   .......",
"  . . .  .......  . . .  .......  . . .  .......  . . .  .......",
" . ... . ... ... . ... . ... ... . ... . ... ... . ... . ... ...",
"  .....  ..   ..  .....  ..   ..  .....  ..   ..  .....  ..   ..",
" ....... .  .  . ....... .  .  . ....... .  .  . ....... .  .  .",
" .......   . .   .......   . .   .......   . .   .......   . .  ",
" .......  . . .  .......  . . .  .......  . . .  .......  . . . ",
" ....... . ... . ....... . ... . ....... . ... . ....... . ... .",
" ... ...  .....  ... ...  .....  ... ...  .....  ... ...  ..... ",
" ..   .. ....... ..   .. ....... ..   .. ....... ..   .. .......",
" .  .  . ....... .  .  . ....... .  .  . ....... .  .  . .......",
"   . .   .......   . .   .......   . .   .......   . .   .......",
"  . . .  .......  . . .  .......  . . .  .......  . . .  .......",
" . ... . ... ... . ... . ... ... . ... . ... ... . ... . ... ...",
"  .....  ..   ..  .....  ..   ..  .....  ..   ..  .....  ..   ..",
" ....... .  .  . ....... .  .  . ....... .  .  . ....... .  .  .",
" .......   . .   .......   . .   .......   . .   .......   . .  ",
" .......  . . .  .......  . . .  .......  . . .  .......  . . . ",
" ....... . ... . ....... . ... . ....... . ... . ....... . ... .",
" .......  .....  .......  .....  .......  .....  .......  ..... ",
" ... ... ....... ... ... ....... ... ... ....... ... ... .......",
" ..   .. ....... ..   .. ....... ..   .. ....... ..   .. .......",
" .  .  . ....... .  .  . ....... .  .  . ....... .  .  . .......",
"   . .   .......   . .   .......   . .   .......   . .   .......",
"  . . .  .......  . . .  .......  . . .  .......  . . .  .......",
" . ... . ... ... . ... . ... ... . ... . ... ... . ... . ... ...",
"  .....  ..   ..  .....  ..   ..  .....  ..   ..  .....  ..   ..",
" ....... .  .  . ....... .  .  . ....... .  .  . ....... .  .  .",
" .......   . .   .......   . .   .......   . .   .......   . .  ",
" .......  . . .  .......  . . .  .......  . . .  .......  . . . ",
" ....... . ... . ....... . ... . ....... . ... . ....... . ... .",
" ... ...  .....  ... ...  .....  ... ...  .....  ... ...  ..... ",
" ..   .. ....... ..   .. ....... ..   .. ....... ..   .. .......",
" .  .  . ....... .  .  . ....... .  .  . ....... .  .  . .......",
"   . .   .......   . .   .......   . .   .......   . .   .......",
"  . . .  .......  . . .  .......  . . .  .......  . . .  .......",
" . ... . ....... . ... . ....... . ... . ....... . ... . .......",
"  .....  ... ...  .....  ... ...  .....  ... ...  .....  ... ...",
" ....... ..   .. ....... ..   .. ....... ..   .. ....... ..   ..",
" ....... .  .  . ....... .  .  . ....... .  .  . ....... .  .  .",
" .......   . .   .......   . .   .......   . .   .......   . .  ",
" .......  . . .  .......  . . .  .......  . . .  .......  . . . ",
" ... ... . ... . ... ... . ... . ... ... . ... . ... ... . ... .",
" ..   ..  .....  ..   ..  .....  ..   ..  .....  ..   ..  ..... ",
" .  .  . ....... .  .  . ....... .  .  . ....... .  .  . .......",
"XXXXXXXXXXXXXXXXXXXXXXXXXXXXXXXXXXXXXXXXXXXXXXXXXXXXXXXXXXXXXXXX",
"XXXXXXXXXXXXXXXXXXXXXXXXXXXXXXXXXXXXXXXXXXXXXXXXXXXXXXXXXXXXXXXX",
"XXXXXXXXXXXXXXXXXXXXXXXXXXXXXXXXXXXXXXXXXXXXXXXXXXXXXXXXXXXXXXXX"
};
